<?xml version="1.0" encoding="UTF-8" standalone="no"?>
<!DOCTYPE svg PUBLIC "-//W3C//DTD SVG 1.1//EN"
 "http://www.w3.org/Graphics/SVG/1.1/DTD/svg11.dtd">
<!-- Generated by graphviz version 7.0.6 (20230106.0513)
 -->
<!-- Title: dependency&#45;cruiser output Pages: 1 -->
<svg width="683pt" height="444pt"
 viewBox="0.00 0.00 683.00 444.00" xmlns="http://www.w3.org/2000/svg" xmlns:xlink="http://www.w3.org/1999/xlink">
<g id="graph0" class="graph" transform="scale(1 1) rotate(0) translate(4 440)">
<title>dependency&#45;cruiser output</title>
<polygon fill="white" stroke="none" points="-4,4 -4,-440 679,-440 679,4 -4,4"/>
<g id="clust1" class="cluster">
<title>cluster_src</title>
<path fill="#ffffff" stroke="black" stroke-width="2" d="M20,-8C20,-8 655,-8 655,-8 661,-8 667,-14 667,-20 667,-20 667,-416 667,-416 667,-422 661,-428 655,-428 655,-428 20,-428 20,-428 14,-428 8,-422 8,-416 8,-416 8,-20 8,-20 8,-14 14,-8 20,-8"/>
<text text-anchor="middle" x="337.5" y="-416.8" font-family="Helvetica,sans-Serif" font-weight="bold" font-size="9.00">src</text>
</g>
<g id="clust2" class="cluster">
<title>cluster_src/components</title>
<path fill="#ffffff" stroke="black" stroke-width="2" d="M266,-16C266,-16 647,-16 647,-16 653,-16 659,-22 659,-28 659,-28 659,-330 659,-330 659,-336 653,-342 647,-342 647,-342 266,-342 266,-342 260,-342 254,-336 254,-330 254,-330 254,-28 254,-28 254,-22 260,-16 266,-16"/>
<text text-anchor="middle" x="456.5" y="-330.8" font-family="Helvetica,sans-Serif" font-weight="bold" font-size="9.00">components</text>
</g>
<g id="clust3" class="cluster">
<title>cluster_src/components/form</title>
<path fill="#ffffff" stroke="black" stroke-width="2" d="M288.5,-264C288.5,-264 348.5,-264 348.5,-264 354.5,-264 360.5,-270 360.5,-276 360.5,-276 360.5,-304 360.5,-304 360.5,-310 354.5,-316 348.5,-316 348.5,-316 288.5,-316 288.5,-316 282.5,-316 276.5,-310 276.5,-304 276.5,-304 276.5,-276 276.5,-276 276.5,-270 282.5,-264 288.5,-264"/>
<text text-anchor="middle" x="318.5" y="-304.8" font-family="Helvetica,sans-Serif" font-weight="bold" font-size="9.00">form</text>
</g>
<g id="clust4" class="cluster">
<title>cluster_src/components/student&#45;sections</title>
<path fill="#ffffff" stroke="black" stroke-width="2" d="M274,-140C274,-140 639,-140 639,-140 645,-140 651,-146 651,-152 651,-152 651,-244 651,-244 651,-250 645,-256 639,-256 639,-256 274,-256 274,-256 268,-256 262,-250 262,-244 262,-244 262,-152 262,-152 262,-146 268,-140 274,-140"/>
<text text-anchor="middle" x="456.5" y="-244.8" font-family="Helvetica,sans-Serif" font-weight="bold" font-size="9.00">student&#45;sections</text>
</g>
<g id="clust5" class="cluster">
<title>cluster_src/components/student&#45;sections/grade&#45;table</title>
<path fill="#ffffff" stroke="black" stroke-width="2" d="M387,-148C387,-148 631,-148 631,-148 637,-148 643,-154 643,-160 643,-160 643,-218 643,-218 643,-224 637,-230 631,-230 631,-230 387,-230 387,-230 381,-230 375,-224 375,-218 375,-218 375,-160 375,-160 375,-154 381,-148 387,-148"/>
<text text-anchor="middle" x="509" y="-218.8" font-family="Helvetica,sans-Serif" font-weight="bold" font-size="9.00">grade&#45;table</text>
</g>
<g id="clust6" class="cluster">
<title>cluster_src/components/student</title>
<path fill="#ffffff" stroke="black" stroke-width="2" d="M292.5,-80C292.5,-80 344.5,-80 344.5,-80 350.5,-80 356.5,-86 356.5,-92 356.5,-92 356.5,-120 356.5,-120 356.5,-126 350.5,-132 344.5,-132 344.5,-132 292.5,-132 292.5,-132 286.5,-132 280.5,-126 280.5,-120 280.5,-120 280.5,-92 280.5,-92 280.5,-86 286.5,-80 292.5,-80"/>
<text text-anchor="middle" x="318.5" y="-120.8" font-family="Helvetica,sans-Serif" font-weight="bold" font-size="9.00">student</text>
</g>
<g id="clust7" class="cluster">
<title>cluster_src/routes</title>
<path fill="#ffffff" stroke="black" stroke-width="2" d="M158,-219C158,-219 234,-219 234,-219 240,-219 246,-225 246,-231 246,-231 246,-289 246,-289 246,-295 240,-301 234,-301 234,-301 158,-301 158,-301 152,-301 146,-295 146,-289 146,-289 146,-231 146,-231 146,-225 152,-219 158,-219"/>
<text text-anchor="middle" x="196" y="-289.8" font-family="Helvetica,sans-Serif" font-weight="bold" font-size="9.00">routes</text>
</g>
<g id="clust8" class="cluster">
<title>cluster_src/services</title>
<path fill="#ffffff" stroke="black" stroke-width="2" d="M173,-350C173,-350 341.5,-350 341.5,-350 347.5,-350 353.5,-356 353.5,-362 353.5,-362 353.5,-390 353.5,-390 353.5,-396 347.5,-402 341.5,-402 341.5,-402 173,-402 173,-402 167,-402 161,-396 161,-390 161,-390 161,-362 161,-362 161,-356 167,-350 173,-350"/>
<text text-anchor="middle" x="257.25" y="-390.8" font-family="Helvetica,sans-Serif" font-weight="bold" font-size="9.00">services</text>
</g>
<!-- src/App.jsx -->
<g id="node1" class="node">
<title>src/App.jsx</title>
<g id="a_node1"><a xlink:href="src/App.jsx" xlink:title="App.jsx">
<path fill="#ffff77" stroke="black" d="M131.5,-275C131.5,-275 89.5,-275 89.5,-275 86.5,-275 83.5,-272 83.5,-269 83.5,-269 83.5,-263 83.5,-263 83.5,-260 86.5,-257 89.5,-257 89.5,-257 131.5,-257 131.5,-257 134.5,-257 137.5,-260 137.5,-263 137.5,-263 137.5,-269 137.5,-269 137.5,-272 134.5,-275 131.5,-275"/>
<text text-anchor="start" x="95" y="-263.8" font-family="Helvetica,sans-Serif" font-size="9.00">App.jsx</text>
</a>
</g>
</g>
<!-- src/routes/login&#45;register.jsx -->
<g id="node2" class="node">
<title>src/routes/login&#45;register.jsx</title>
<g id="a_node2"><a xlink:href="src/routes/login-register.jsx" xlink:title="login&#45;register.jsx">
<path fill="#ffff77" stroke="black" d="M232,-275C232,-275 160,-275 160,-275 157,-275 154,-272 154,-269 154,-269 154,-263 154,-263 154,-260 157,-257 160,-257 160,-257 232,-257 232,-257 235,-257 238,-260 238,-263 238,-263 238,-269 238,-269 238,-272 235,-275 232,-275"/>
<text text-anchor="start" x="162" y="-263.8" font-family="Helvetica,sans-Serif" font-size="9.00">login&#45;register.jsx</text>
</a>
</g>
</g>
<!-- src/App.jsx&#45;&gt;src/routes/login&#45;register.jsx -->
<g id="edge1" class="edge">
<title>src/App.jsx&#45;&gt;src/routes/login&#45;register.jsx</title>
<path fill="none" stroke="#000000" stroke-width="2" stroke-opacity="0.200000" d="M137.92,-266C140.29,-266 142.74,-266 145.24,-266"/>
<polygon fill="#000000" fill-opacity="0.200000" stroke="#000000" stroke-width="2" stroke-opacity="0.200000" points="144.77,-268.1 150.77,-266 144.77,-263.9 144.77,-268.1"/>
</g>
<!-- src/routes/students.jsx -->
<g id="node3" class="node">
<title>src/routes/students.jsx</title>
<g id="a_node3"><a xlink:href="src/routes/students.jsx" xlink:title="students.jsx">
<path fill="#ffff77" stroke="black" d="M222.5,-245C222.5,-245 169.5,-245 169.5,-245 166.5,-245 163.5,-242 163.5,-239 163.5,-239 163.5,-233 163.5,-233 163.5,-230 166.5,-227 169.5,-227 169.5,-227 222.5,-227 222.5,-227 225.5,-227 228.5,-230 228.5,-233 228.5,-233 228.5,-239 228.5,-239 228.5,-242 225.5,-245 222.5,-245"/>
<text text-anchor="start" x="171.5" y="-233.8" font-family="Helvetica,sans-Serif" font-size="9.00">students.jsx</text>
</a>
</g>
</g>
<!-- src/App.jsx&#45;&gt;src/routes/students.jsx -->
<g id="edge2" class="edge">
<title>src/App.jsx&#45;&gt;src/routes/students.jsx</title>
<path fill="none" stroke="#000000" stroke-width="2" stroke-opacity="0.200000" d="M132.14,-256.57C136.67,-254.63 141.47,-252.67 146,-251 148.84,-249.95 151.79,-248.92 154.77,-247.91"/>
<polygon fill="#000000" fill-opacity="0.200000" stroke="#000000" stroke-width="2" stroke-opacity="0.200000" points="155.26,-249.96 160.32,-246.1 153.96,-245.97 155.26,-249.96"/>
</g>
<!-- src/services/index.js -->
<g id="node4" class="node">
<title>src/services/index.js</title>
<g id="a_node4"><a xlink:href="src/services/index.js" xlink:title="index.js">
<path fill="#ffffcc" stroke="black" d="M217,-376C217,-376 175,-376 175,-376 172,-376 169,-373 169,-370 169,-370 169,-364 169,-364 169,-361 172,-358 175,-358 175,-358 217,-358 217,-358 220,-358 223,-361 223,-364 223,-364 223,-370 223,-370 223,-373 220,-376 217,-376"/>
<text text-anchor="start" x="180" y="-364.8" font-family="Helvetica,sans-Serif" font-size="9.00">index.js</text>
</a>
</g>
</g>
<!-- src/App.jsx&#45;&gt;src/services/index.js -->
<g id="edge3" class="edge">
<title>src/App.jsx&#45;&gt;src/services/index.js</title>
<path fill="none" stroke="#000000" stroke-width="2" stroke-opacity="0.200000" d="M131.81,-275.37C134.1,-277.02 136.24,-278.89 138,-281 144.93,-289.31 140.83,-294.49 146,-304 155.51,-321.5 169.8,-339.22 180.49,-351.39"/>
<polygon fill="#000000" fill-opacity="0.200000" stroke="#000000" stroke-width="2" stroke-opacity="0.200000" points="178.72,-352.55 184.29,-355.61 181.84,-349.75 178.72,-352.55"/>
</g>
<!-- src/components/button.jsx -->
<g id="node5" class="node">
<title>src/components/button.jsx</title>
<g id="a_node5"><a xlink:href="src/components/button.jsx" xlink:title="button.jsx">
<path fill="#ffff77" stroke="black" d="M340.5,-42C340.5,-42 296.5,-42 296.5,-42 293.5,-42 290.5,-39 290.5,-36 290.5,-36 290.5,-30 290.5,-30 290.5,-27 293.5,-24 296.5,-24 296.5,-24 340.5,-24 340.5,-24 343.5,-24 346.5,-27 346.5,-30 346.5,-30 346.5,-36 346.5,-36 346.5,-39 343.5,-42 340.5,-42"/>
<text text-anchor="start" x="298.5" y="-30.8" font-family="Helvetica,sans-Serif" font-size="9.00">button.jsx</text>
</a>
</g>
</g>
<!-- src/routes/login&#45;register.jsx&#45;&gt;src/components/button.jsx -->
<g id="edge10" class="edge">
<title>src/routes/login&#45;register.jsx&#45;&gt;src/components/button.jsx</title>
<path fill="none" stroke="#000000" stroke-width="2" stroke-opacity="0.200000" d="M238.15,-258C241.14,-256.12 243.83,-253.82 246,-251 259.78,-233.12 239.65,-65.42 254,-48 260.75,-39.8 271.08,-35.6 281.45,-33.56"/>
<polygon fill="#000000" fill-opacity="0.200000" stroke="#000000" stroke-width="2" stroke-opacity="0.200000" points="281.46,-35.68 287.1,-32.75 280.86,-31.52 281.46,-35.68"/>
</g>
<!-- src/components/error.jsx -->
<g id="node6" class="node">
<title>src/components/error.jsx</title>
<g id="a_node6"><a xlink:href="src/components/error.jsx" xlink:title="error.jsx">
<path fill="#ffff77" stroke="black" d="M339.5,-72C339.5,-72 297.5,-72 297.5,-72 294.5,-72 291.5,-69 291.5,-66 291.5,-66 291.5,-60 291.5,-60 291.5,-57 294.5,-54 297.5,-54 297.5,-54 339.5,-54 339.5,-54 342.5,-54 345.5,-57 345.5,-60 345.5,-60 345.5,-66 345.5,-66 345.5,-69 342.5,-72 339.5,-72"/>
<text text-anchor="start" x="301.5" y="-60.8" font-family="Helvetica,sans-Serif" font-size="9.00">error.jsx</text>
</a>
</g>
</g>
<!-- src/routes/login&#45;register.jsx&#45;&gt;src/components/error.jsx -->
<g id="edge11" class="edge">
<title>src/routes/login&#45;register.jsx&#45;&gt;src/components/error.jsx</title>
<path fill="none" stroke="#000000" stroke-width="2" stroke-opacity="0.200000" d="M238.13,-257.99C241.12,-256.11 243.82,-253.81 246,-251 257.86,-235.71 241.53,-91.8 254,-77 260.99,-68.7 271.68,-64.66 282.3,-62.85"/>
<polygon fill="#000000" fill-opacity="0.200000" stroke="#000000" stroke-width="2" stroke-opacity="0.200000" points="282.41,-64.95 288.13,-62.16 281.92,-60.78 282.41,-64.95"/>
</g>
<!-- src/components/form/input&#45;text.jsx -->
<g id="node7" class="node">
<title>src/components/form/input&#45;text.jsx</title>
<g id="a_node7"><a xlink:href="src/components/form/input-text.jsx" xlink:title="input&#45;text.jsx">
<path fill="#ffff77" stroke="black" d="M346.5,-290C346.5,-290 290.5,-290 290.5,-290 287.5,-290 284.5,-287 284.5,-284 284.5,-284 284.5,-278 284.5,-278 284.5,-275 287.5,-272 290.5,-272 290.5,-272 346.5,-272 346.5,-272 349.5,-272 352.5,-275 352.5,-278 352.5,-278 352.5,-284 352.5,-284 352.5,-287 349.5,-290 346.5,-290"/>
<text text-anchor="start" x="292.5" y="-278.8" font-family="Helvetica,sans-Serif" font-size="9.00">input&#45;text.jsx</text>
</a>
</g>
</g>
<!-- src/routes/login&#45;register.jsx&#45;&gt;src/components/form/input&#45;text.jsx -->
<g id="edge12" class="edge">
<title>src/routes/login&#45;register.jsx&#45;&gt;src/components/form/input&#45;text.jsx</title>
<path fill="none" stroke="#000000" stroke-width="2" stroke-opacity="0.200000" d="M238.47,-271.16C250.4,-272.65 263.43,-274.27 275.4,-275.76"/>
<polygon fill="#000000" fill-opacity="0.200000" stroke="#000000" stroke-width="2" stroke-opacity="0.200000" points="275.1,-277.84 281.31,-276.5 275.62,-273.67 275.1,-277.84"/>
</g>
<!-- src/services/api.js -->
<g id="node16" class="node">
<title>src/services/api.js</title>
<g id="a_node16"><a xlink:href="src/services/api.js" xlink:title="api.js">
<path fill="#ffffcc" stroke="black" d="M339.5,-376C339.5,-376 297.5,-376 297.5,-376 294.5,-376 291.5,-373 291.5,-370 291.5,-370 291.5,-364 291.5,-364 291.5,-361 294.5,-358 297.5,-358 297.5,-358 339.5,-358 339.5,-358 342.5,-358 345.5,-361 345.5,-364 345.5,-364 345.5,-370 345.5,-370 345.5,-373 342.5,-376 339.5,-376"/>
<text text-anchor="start" x="307.5" y="-364.8" font-family="Helvetica,sans-Serif" font-size="9.00">api.js</text>
</a>
</g>
</g>
<!-- src/routes/login&#45;register.jsx&#45;&gt;src/services/api.js -->
<g id="edge13" class="edge">
<title>src/routes/login&#45;register.jsx&#45;&gt;src/services/api.js</title>
<path fill="none" stroke="#000000" stroke-width="2" stroke-opacity="0.200000" d="M206.41,-275.31C217.5,-286.14 236.61,-304.41 254,-319 268.16,-330.88 284.86,-343.45 297.57,-352.74"/>
<polygon fill="#000000" fill-opacity="0.200000" stroke="#000000" stroke-width="2" stroke-opacity="0.200000" points="296.01,-354.21 302.1,-356.03 298.48,-350.81 296.01,-354.21"/>
</g>
<!-- src/routes/students.jsx&#45;&gt;src/components/button.jsx -->
<g id="edge14" class="edge">
<title>src/routes/students.jsx&#45;&gt;src/components/button.jsx</title>
<path fill="none" stroke="#000000" stroke-width="2" stroke-opacity="0.200000" d="M196.8,-226.51C196.71,-195.77 200.81,-97.97 254,-48 261.47,-40.98 271.59,-37.05 281.56,-34.9"/>
<polygon fill="#000000" fill-opacity="0.200000" stroke="#000000" stroke-width="2" stroke-opacity="0.200000" points="281.66,-37.01 287.23,-33.94 280.96,-32.87 281.66,-37.01"/>
</g>
<!-- src/routes/students.jsx&#45;&gt;src/components/form/input&#45;text.jsx -->
<g id="edge15" class="edge">
<title>src/routes/students.jsx&#45;&gt;src/components/form/input&#45;text.jsx</title>
<path fill="none" stroke="#000000" stroke-width="2" stroke-opacity="0.200000" d="M228.82,-243.26C234.75,-245.29 240.74,-247.84 246,-251 250.31,-253.59 249.74,-256.33 254,-259 260.75,-263.23 268.42,-266.77 276.04,-269.68"/>
<polygon fill="#000000" fill-opacity="0.200000" stroke="#000000" stroke-width="2" stroke-opacity="0.200000" points="275.03,-271.55 281.39,-271.59 276.44,-267.6 275.03,-271.55"/>
</g>
<!-- src/components/student&#45;sections/student&#45;sections.jsx -->
<g id="node12" class="node">
<title>src/components/student&#45;sections/student&#45;sections.jsx</title>
<g id="a_node12"><a xlink:href="src/components/student-sections/student-sections.jsx" xlink:title="student&#45;sections.jsx">
<path fill="#ffff77" stroke="black" d="M361,-217C361,-217 276,-217 276,-217 273,-217 270,-214 270,-211 270,-211 270,-205 270,-205 270,-202 273,-199 276,-199 276,-199 361,-199 361,-199 364,-199 367,-202 367,-205 367,-205 367,-211 367,-211 367,-214 364,-217 361,-217"/>
<text text-anchor="start" x="278" y="-205.8" font-family="Helvetica,sans-Serif" font-size="9.00">student&#45;sections.jsx</text>
</a>
</g>
</g>
<!-- src/routes/students.jsx&#45;&gt;src/components/student&#45;sections/student&#45;sections.jsx -->
<g id="edge16" class="edge">
<title>src/routes/students.jsx&#45;&gt;src/components/student&#45;sections/student&#45;sections.jsx</title>
<path fill="none" stroke="#000000" stroke-width="2" stroke-opacity="0.200000" d="M228.98,-228.57C240.99,-225.78 254.94,-222.54 268.16,-219.46"/>
<polygon fill="#000000" fill-opacity="0.200000" stroke="#000000" stroke-width="2" stroke-opacity="0.200000" points="268.4,-221.56 273.77,-218.16 267.45,-217.47 268.4,-221.56"/>
</g>
<!-- src/services/index.js&#45;&gt;src/services/api.js -->
<g id="edge17" class="edge">
<title>src/services/index.js&#45;&gt;src/services/api.js</title>
<path fill="none" stroke="#000000" stroke-width="2" stroke-opacity="0.200000" d="M223.44,-367C240.71,-367 263.45,-367 282.25,-367"/>
<polygon fill="#000000" fill-opacity="0.200000" stroke="#000000" stroke-width="2" stroke-opacity="0.200000" points="282.09,-369.1 288.09,-367 282.09,-364.9 282.09,-369.1"/>
</g>
<!-- src/components/student&#45;sections/grade&#45;table/grade&#45;body.jsx -->
<g id="node8" class="node">
<title>src/components/student&#45;sections/grade&#45;table/grade&#45;body.jsx</title>
<g id="a_node8"><a xlink:href="src/components/student-sections/grade-table/grade-body.jsx" xlink:title="grade&#45;body.jsx">
<path fill="#ffff77" stroke="black" d="M544.5,-174C544.5,-174 479.5,-174 479.5,-174 476.5,-174 473.5,-171 473.5,-168 473.5,-168 473.5,-162 473.5,-162 473.5,-159 476.5,-156 479.5,-156 479.5,-156 544.5,-156 544.5,-156 547.5,-156 550.5,-159 550.5,-162 550.5,-162 550.5,-168 550.5,-168 550.5,-171 547.5,-174 544.5,-174"/>
<text text-anchor="start" x="481.5" y="-162.8" font-family="Helvetica,sans-Serif" font-size="9.00">grade&#45;body.jsx</text>
</a>
</g>
</g>
<!-- src/components/student&#45;sections/grade&#45;table/grade&#45;row.jsx -->
<g id="node9" class="node">
<title>src/components/student&#45;sections/grade&#45;table/grade&#45;row.jsx</title>
<g id="a_node9"><a xlink:href="src/components/student-sections/grade-table/grade-row.jsx" xlink:title="grade&#45;row.jsx">
<path fill="#ffff77" stroke="black" d="M629,-174C629,-174 570,-174 570,-174 567,-174 564,-171 564,-168 564,-168 564,-162 564,-162 564,-159 567,-156 570,-156 570,-156 629,-156 629,-156 632,-156 635,-159 635,-162 635,-162 635,-168 635,-168 635,-171 632,-174 629,-174"/>
<text text-anchor="start" x="572" y="-162.8" font-family="Helvetica,sans-Serif" font-size="9.00">grade&#45;row.jsx</text>
</a>
</g>
</g>
<!-- src/components/student&#45;sections/grade&#45;table/grade&#45;body.jsx&#45;&gt;src/components/student&#45;sections/grade&#45;table/grade&#45;row.jsx -->
<g id="edge4" class="edge">
<title>src/components/student&#45;sections/grade&#45;table/grade&#45;body.jsx&#45;&gt;src/components/student&#45;sections/grade&#45;table/grade&#45;row.jsx</title>
<path fill="none" stroke="#000000" stroke-width="2" stroke-opacity="0.200000" d="M550.75,-165C552.09,-165 553.44,-165 554.79,-165"/>
<polygon fill="#000000" fill-opacity="0.200000" stroke="#000000" stroke-width="2" stroke-opacity="0.200000" points="554.64,-167.1 560.64,-165 554.64,-162.9 554.64,-167.1"/>
</g>
<!-- src/components/student&#45;sections/grade&#45;table/grade&#45;head.jsx -->
<g id="node10" class="node">
<title>src/components/student&#45;sections/grade&#45;table/grade&#45;head.jsx</title>
<g id="a_node10"><a xlink:href="src/components/student-sections/grade-table/grade-head.jsx" xlink:title="grade&#45;head.jsx">
<path fill="#ffff77" stroke="black" d="M545,-204C545,-204 479,-204 479,-204 476,-204 473,-201 473,-198 473,-198 473,-192 473,-192 473,-189 476,-186 479,-186 479,-186 545,-186 545,-186 548,-186 551,-189 551,-192 551,-192 551,-198 551,-198 551,-201 548,-204 545,-204"/>
<text text-anchor="start" x="481" y="-192.8" font-family="Helvetica,sans-Serif" font-size="9.00">grade&#45;head.jsx</text>
</a>
</g>
</g>
<!-- src/components/student&#45;sections/grade&#45;table/grade&#45;table.jsx -->
<g id="node11" class="node">
<title>src/components/student&#45;sections/grade&#45;table/grade&#45;table.jsx</title>
<g id="a_node11"><a xlink:href="src/components/student-sections/grade-table/grade-table.jsx" xlink:title="grade&#45;table.jsx">
<path fill="#ffff77" stroke="black" d="M454,-204C454,-204 389,-204 389,-204 386,-204 383,-201 383,-198 383,-198 383,-192 383,-192 383,-189 386,-186 389,-186 389,-186 454,-186 454,-186 457,-186 460,-189 460,-192 460,-192 460,-198 460,-198 460,-201 457,-204 454,-204"/>
<text text-anchor="start" x="391" y="-192.8" font-family="Helvetica,sans-Serif" font-size="9.00">grade&#45;table.jsx</text>
</a>
</g>
</g>
<!-- src/components/student&#45;sections/grade&#45;table/grade&#45;table.jsx&#45;&gt;src/components/student&#45;sections/grade&#45;table/grade&#45;body.jsx -->
<g id="edge5" class="edge">
<title>src/components/student&#45;sections/grade&#45;table/grade&#45;table.jsx&#45;&gt;src/components/student&#45;sections/grade&#45;table/grade&#45;body.jsx</title>
<path fill="none" stroke="#000000" stroke-width="2" stroke-opacity="0.200000" d="M450.5,-185.51C458.16,-182.91 466.58,-180.06 474.63,-177.33"/>
<polygon fill="#000000" fill-opacity="0.200000" stroke="#000000" stroke-width="2" stroke-opacity="0.200000" points="475.31,-179.32 480.31,-175.4 473.96,-175.34 475.31,-179.32"/>
</g>
<!-- src/components/student&#45;sections/grade&#45;table/grade&#45;table.jsx&#45;&gt;src/components/student&#45;sections/grade&#45;table/grade&#45;head.jsx -->
<g id="edge6" class="edge">
<title>src/components/student&#45;sections/grade&#45;table/grade&#45;table.jsx&#45;&gt;src/components/student&#45;sections/grade&#45;table/grade&#45;head.jsx</title>
<path fill="none" stroke="#000000" stroke-width="2" stroke-opacity="0.200000" d="M460.29,-195C461.45,-195 462.62,-195 463.79,-195"/>
<polygon fill="#000000" fill-opacity="0.200000" stroke="#000000" stroke-width="2" stroke-opacity="0.200000" points="463.75,-197.1 469.75,-195 463.75,-192.9 463.75,-197.1"/>
</g>
<!-- src/components/student&#45;sections/student&#45;sections.jsx&#45;&gt;src/components/student&#45;sections/grade&#45;table/grade&#45;table.jsx -->
<g id="edge7" class="edge">
<title>src/components/student&#45;sections/student&#45;sections.jsx&#45;&gt;src/components/student&#45;sections/grade&#45;table/grade&#45;table.jsx</title>
<path fill="none" stroke="#000000" stroke-width="2" stroke-opacity="0.200000" d="M367.34,-201.84C369.57,-201.56 371.81,-201.27 374.03,-200.98"/>
<polygon fill="#000000" fill-opacity="0.200000" stroke="#000000" stroke-width="2" stroke-opacity="0.200000" points="373.85,-203.12 379.53,-200.27 373.31,-198.96 373.85,-203.12"/>
</g>
<!-- src/components/student/student.jsx -->
<g id="node13" class="node">
<title>src/components/student/student.jsx</title>
<g id="a_node13"><a xlink:href="src/components/student/student.jsx" xlink:title="student.jsx">
<path fill="#ccffcc" stroke="black" d="M342.5,-106C342.5,-106 294.5,-106 294.5,-106 291.5,-106 288.5,-103 288.5,-100 288.5,-100 288.5,-94 288.5,-94 288.5,-91 291.5,-88 294.5,-88 294.5,-88 342.5,-88 342.5,-88 345.5,-88 348.5,-91 348.5,-94 348.5,-94 348.5,-100 348.5,-100 348.5,-103 345.5,-106 342.5,-106"/>
<text text-anchor="start" x="296.5" y="-94.8" font-family="Helvetica,sans-Serif" font-size="9.00">student.jsx</text>
</a>
</g>
</g>
<!-- src/index.css -->
<g id="node14" class="node">
<title>src/index.css</title>
<g id="a_node14"><a xlink:href="src/index.css" xlink:title="index.css">
<path fill="#ffffcc" stroke="black" d="M132,-305C132,-305 89,-305 89,-305 86,-305 83,-302 83,-299 83,-299 83,-293 83,-293 83,-290 86,-287 89,-287 89,-287 132,-287 132,-287 135,-287 138,-290 138,-293 138,-293 138,-299 138,-299 138,-302 135,-305 132,-305"/>
<text text-anchor="start" x="91" y="-293.8" font-family="Helvetica,sans-Serif" font-size="9.00">index.css</text>
</a>
</g>
</g>
<!-- src/main.jsx -->
<g id="node15" class="node">
<title>src/main.jsx</title>
<g id="a_node15"><a xlink:href="src/main.jsx" xlink:title="main.jsx">
<path fill="#ffff77" stroke="black" d="M64,-290C64,-290 22,-290 22,-290 19,-290 16,-287 16,-284 16,-284 16,-278 16,-278 16,-275 19,-272 22,-272 22,-272 64,-272 64,-272 67,-272 70,-275 70,-278 70,-278 70,-284 70,-284 70,-287 67,-290 64,-290"/>
<text text-anchor="start" x="26" y="-278.8" font-family="Helvetica,sans-Serif" font-size="9.00">main.jsx</text>
</a>
</g>
</g>
<!-- src/main.jsx&#45;&gt;src/App.jsx -->
<g id="edge8" class="edge">
<title>src/main.jsx&#45;&gt;src/App.jsx</title>
<path fill="none" stroke="#000000" stroke-width="2" stroke-opacity="0.200000" d="M70.26,-274.99C71.73,-274.65 73.22,-274.31 74.71,-273.97"/>
<polygon fill="#000000" fill-opacity="0.200000" stroke="#000000" stroke-width="2" stroke-opacity="0.200000" points="74.9,-276.08 80.28,-272.69 73.96,-271.98 74.9,-276.08"/>
</g>
<!-- src/main.jsx&#45;&gt;src/index.css -->
<g id="edge9" class="edge">
<title>src/main.jsx&#45;&gt;src/index.css</title>
<path fill="none" stroke="#000000" stroke-width="2" stroke-opacity="0.200000" d="M70.26,-287.01C71.55,-287.31 72.86,-287.61 74.17,-287.91"/>
<polygon fill="#000000" fill-opacity="0.200000" stroke="#000000" stroke-width="2" stroke-opacity="0.200000" points="73.53,-289.92 79.85,-289.21 74.47,-285.82 73.53,-289.92"/>
</g>
</g>
</svg>
